<svg width="58" height="18" viewBox="0 0 58 18" fill="none" xmlns="http://www.w3.org/2000/svg">
<g clip-path="url(#clip0_166_540)">
<path d="M57.4504 1.24196L56.5135 5.44488C56.4683 5.64529 56.2899 5.78924 56.0861 5.78924H54.753C54.5011 5.78924 54.3001 5.57754 54.3143 5.32915C54.3171 5.27552 54.3171 5.25294 54.3171 5.25012C54.3822 3.87831 53.5132 2.85369 51.5489 2.85652C48.2825 2.85652 45.9077 5.52956 45.5964 9.03811C45.2766 12.6624 47.8155 14.7681 51.3309 14.7681C53.134 14.7681 54.5605 14.4209 55.3615 14.1697C55.6786 14.0681 55.9899 14.3447 55.9276 14.6693L55.5144 16.8399C55.4804 17.0262 55.3446 17.1758 55.1634 17.2322C54.4416 17.4609 52.4207 18 49.3213 18C41.9621 18 38.9759 13.7801 39.4373 9.47562C39.8534 5.64529 42.3951 0 52.4207 0C54.3397 0 55.8767 0.307668 57.0853 0.637918C57.3485 0.711306 57.5099 0.976635 57.4504 1.24479V1.24196ZM15.6075 0.646385L15.364 1.74157C15.3103 1.98714 15.4546 2.23271 15.6952 2.30328C16.1198 2.46699 16.2132 2.87063 15.8424 3.17547L9.68611 8.27881C9.68611 8.27881 9.68328 8.27881 9.68611 8.27881L10.7447 3.46903C10.9259 2.73232 11.5118 2.42747 11.8854 2.3061C11.9052 2.30045 11.925 2.29481 11.9448 2.28634C12.109 2.23553 12.2307 2.10287 12.2675 1.93633L12.5194 0.795986C12.5789 0.525012 12.3722 0.268151 12.0948 0.268151H4.15819C3.93458 0.268151 3.73928 0.423397 3.69116 0.64074L3.43358 1.7952C3.38264 2.02948 3.51567 2.26658 3.74211 2.34562C3.78739 2.35973 3.8157 2.37102 3.82136 2.37384C4.31952 2.56861 4.89694 3.00612 4.65352 4.15775L2.75993 12.7979C2.2646 15.1576 1.46357 15.6403 0.696511 15.7278C0.68802 15.7278 0.679528 15.7278 0.671037 15.7278C0.467242 15.7504 0.297414 15.9 0.254956 16.1004L0.0115353 17.2153C-0.0507352 17.5004 0.167212 17.7714 0.458751 17.7714H8.80583C9.00963 17.7714 9.18795 17.6302 9.2304 17.4298L9.51911 16.1342C9.56723 15.9225 9.45118 15.7108 9.25022 15.6318C9.23323 15.6262 9.21625 15.6177 9.19644 15.6092C8.7747 15.437 8.19728 15.0757 8.34446 14.387L9.31532 9.96958C9.31532 9.96958 9.31532 9.96958 9.31815 9.96958C12.6411 16.027 13.7422 17.7714 17.7303 17.7714H21.3307C21.5345 17.7714 21.71 17.6302 21.7553 17.4326L22.0072 16.3092C22.0723 16.0213 21.86 15.7447 21.5628 15.7391C20.6627 15.7249 20.2183 15.5161 19.3239 14.3673L14.6989 8.12639L20.708 3.1416C21.5147 2.51215 22.4969 2.33715 23.0431 2.26376C23.0431 2.26376 23.063 2.26376 23.0969 2.25812C23.2894 2.23836 23.4451 2.10287 23.4875 1.91658L23.7338 0.807276C23.796 0.53348 23.5866 0.273796 23.3035 0.273796H16.0745C15.8509 0.273796 15.6584 0.429042 15.6103 0.646385H15.6075ZM37.8437 5.44488H39.2505C39.4571 5.44488 39.6326 5.30375 39.6779 5.10334L40.6346 0.807276C40.694 0.53348 40.4874 0.273796 40.2072 0.273796H25.4236C25.2 0.273796 25.0047 0.429042 24.9565 0.649208L24.7018 1.80085C24.6509 2.02666 24.7782 2.25247 24.9962 2.32868C25.0132 2.33433 25.0273 2.33997 25.0443 2.34562C25.5311 2.53191 26.2076 3.00047 25.9132 4.15493L23.0177 17.2407C22.9582 17.5117 23.1649 17.7714 23.4451 17.7714H30.0939C30.2977 17.7714 30.476 17.6302 30.5213 17.4298L30.8128 16.1229C30.8553 15.931 30.7562 15.7334 30.575 15.6544C30.5524 15.6459 30.5326 15.6346 30.5099 15.6233C30.0882 15.4201 29.4598 14.9431 29.6693 14.0257C29.6919 13.9043 30.3203 11.0648 30.3203 11.0648H35.9756C36.1822 11.0648 36.3577 10.9236 36.403 10.7232L36.9351 8.33245C36.9974 8.05865 36.7879 7.79896 36.5077 7.79896H31.0477L32.0667 3.16418H35.8822C37.1163 3.15854 37.4899 3.8021 37.4191 4.89729C37.4191 4.89729 37.4191 4.9114 37.4135 4.95656C37.3852 5.21625 37.589 5.44488 37.8522 5.44488H37.8437Z" fill="white"/>
</g>
<defs>
<clipPath id="clip0_166_540">
<rect width="57.4615" height="18" fill="white"/>
</clipPath>
</defs>
</svg>
